<svg width="437" height="107" viewBox="0 0 437 107" fill="none" xmlns="http://www.w3.org/2000/svg">
<path d="M418.799 0C424.674 0 429.989 1.15505 434.723 3.48644L435.602 3.91942L433.022 9.53827L432.096 9.09054C428.018 7.11726 423.286 6.1153 417.876 6.1153C414.349 6.11531 411.574 6.96281 409.468 8.57342C407.484 10.0901 406.444 12.1868 406.381 14.9834L406.378 15.256C406.378 18.5231 407.685 21.4989 410.411 24.2093L410.68 24.4705L410.685 24.4755L411.092 24.8656C413.167 26.8228 415.786 28.9122 418.959 31.1335C422.437 33.4524 424.856 35.1448 426.189 36.1968C427.357 37.1186 428.726 38.3252 430.294 39.8107L430.979 40.4646L430.992 40.4779C434.512 43.9982 436.31 48.1096 436.31 52.7739C436.31 58.697 434.296 63.3244 430.176 66.4884L430.174 66.4904C426.177 69.5428 420.633 71.0027 413.674 71.0027C406.723 71.0027 400.823 69.1734 396.04 65.4606L395.289 64.8781L398.853 59.6809L399.682 60.2423C404.177 63.2824 408.903 64.7846 413.879 64.7846C418.945 64.7846 422.732 63.7161 425.364 61.7104L425.373 61.7036C428.032 59.7243 429.375 56.9616 429.375 53.2861C429.375 50.1944 428.057 47.2981 425.27 44.5764L425.266 44.5725L425.262 44.568C423.271 42.5765 420.556 40.3949 417.101 38.0237L417.097 38.0207L417.094 38.0183C413.677 35.6266 411.273 33.9093 409.891 32.8732L409.879 32.8639L409.867 32.854C408.468 31.7349 406.837 30.2772 404.979 28.4879L404.966 28.4746C401.308 24.8164 399.442 20.5336 399.442 15.6659C399.442 10.8206 401.158 6.92967 404.634 4.11918L404.639 4.11623L404.643 4.11278C408.157 1.33075 412.915 1.37508e-05 418.799 0Z" fill="white"/>
<path d="M33.5028 0.204678C41.3309 0.20469 48.987 1.41753 56.4673 3.84168L57.4188 4.14968L55.5865 9.95255L54.6306 9.65833C47.8404 7.56904 40.8274 6.4911 33.5889 6.42576L32.8878 6.42281C25.5981 6.42281 19.4784 9.19782 14.47 14.7989L14.4705 14.7994C9.52581 20.3375 7.03857 27.1648 7.03857 35.3476C7.0386 43.4126 9.90133 50.2605 15.6528 55.9479C21.4928 61.6552 28.1818 64.477 35.7577 64.4771C43.5315 64.4771 49.9141 63.3939 54.9454 61.2755L55.838 60.9001L58.1844 65.9059L57.3667 66.364C52.0295 69.3527 44.6922 70.7975 35.4502 70.7975C26.0899 70.7975 17.8166 67.4087 10.6702 60.6826L10.6667 60.6792C3.56035 53.9245 0.000244141 45.5263 0.000244141 35.5523C0.000284178 25.5547 3.08429 17.1374 9.28562 10.3722L9.28956 10.3683C15.5767 3.58673 23.6768 0.204678 33.5028 0.204678Z" fill="white"/>
<path fill-rule="evenodd" clip-rule="evenodd" d="M97.9981 0.204678C107.761 0.204678 115.986 3.62359 122.606 10.4544C129.22 17.2801 132.525 25.6677 132.525 35.5523C132.525 45.3707 129.219 53.7236 122.606 60.5478C115.986 67.3787 107.761 70.7975 97.9981 70.7975C88.2353 70.7975 80.0099 67.3787 73.3902 60.5478C66.7771 53.7236 63.4707 45.3707 63.4707 35.5523C63.4707 25.6677 66.7757 17.2801 73.3902 10.4544C80.0099 3.62357 88.2353 0.204685 97.9981 0.204678ZM97.9981 6.42281C90.0666 6.42282 83.5009 9.21907 78.2302 14.8191C73.1018 20.3393 70.4886 27.1011 70.4081 35.167L70.4061 35.5523C70.4061 43.7158 73.0174 50.5704 78.2263 56.1792L78.4743 56.4365C83.7014 61.7979 90.1866 64.4771 97.9981 64.4771C106.004 64.4771 112.567 61.7105 117.765 56.1836C122.977 50.574 125.59 43.718 125.59 35.5523C125.59 27.3138 122.974 20.4229 117.761 14.8142C112.562 9.22034 106 6.42281 97.9981 6.42281Z" fill="white"/>
<path d="M337.089 40.0626C337.089 48.443 338.951 54.5401 342.498 58.5369C346.026 62.5108 351.372 64.5794 358.735 64.5794C366.098 64.5794 371.445 62.5109 374.972 58.5369C378.52 54.5401 380.382 48.443 380.382 40.0626V1.23005H387.112V40.0626C387.112 49.5144 384.818 57.0538 380.104 62.5528C375.344 68.1061 368.152 70.7975 358.735 70.7975C349.319 70.7975 342.126 68.1061 337.366 62.5528C332.653 57.0538 330.358 49.5144 330.358 40.0626V9.11203L337.089 1.23005V40.0626Z" fill="white"/>
<path d="M191.592 51.3948C193.176 53.186 194.625 54.98 195.938 56.7765C196.008 56.8635 196.076 56.9481 196.143 57.0309C196.099 55.3143 196.076 53.107 196.076 50.4162V1.23005H202.807V70.1825H199.085L154.296 18.7887L154.286 18.7774L154.277 18.7656L150.568 14.2469C150.609 15.9295 150.631 18.1487 150.631 20.8941V69.7727H143.9V0.820194H147.622L191.592 51.3948Z" fill="white"/>
<path d="M257.956 7.34535H222.404V31.0336H251.363V37.0465H222.404V63.4517H256.295L250.275 69.7727H215.673V1.23005H253.37L257.956 7.34535Z" fill="white"/>
<path d="M298.519 34.6002L327.195 69.7727H319.008L294.585 39.8181L239.383 103.093C237.343 105.475 234.394 106.878 231.268 106.963L230.965 106.967H227.871L290.303 34.5402L263.765 1.23005H272.027L294.673 29.4193L318.885 1.23005H326.784L298.519 34.6002Z" fill="white"/>
<path d="M357.675 103.948C356.612 103.948 355.691 103.723 354.911 103.275C354.156 102.826 353.577 102.283 353.176 101.645C352.774 101.007 352.573 100.393 352.573 99.8029C352.573 98.9763 352.833 98.2914 353.353 97.7482C353.872 97.1814 354.699 96.7208 355.832 96.3666L361.359 94.6662V93.2137C361.359 92.6942 361.193 92.21 360.863 91.7613C360.532 91.3126 360.095 90.9465 359.552 90.6631C359.009 90.3797 358.418 90.238 357.781 90.238C357.332 90.238 357.013 90.3443 356.824 90.5568C356.659 90.7458 356.553 91.1355 356.505 91.7259L356.364 93.6388C355.301 93.875 354.415 93.8514 353.707 93.568C353.022 93.261 352.68 92.765 352.68 92.0801C352.68 91.655 352.892 91.2181 353.317 90.7694C353.742 90.3207 354.274 89.8956 354.911 89.4941C355.573 89.0926 356.258 88.7501 356.966 88.4667C357.675 88.1833 358.324 88.0062 358.914 87.9354C360.898 87.9354 362.469 88.4077 363.626 89.3524C364.807 90.2971 365.409 91.5606 365.433 93.1429L365.326 98.3858C365.326 98.9763 365.338 99.4722 365.362 99.8737C365.409 100.252 365.48 100.559 365.574 100.795L367.877 101.22V102.566L365.787 103.452C365.385 103.617 365.019 103.735 364.689 103.806C364.358 103.9 364.051 103.948 363.768 103.948C362.917 103.948 362.327 103.499 361.996 102.601L361.688 101.696C361.688 101.696 360.508 102.844 359.906 103.239C359.151 103.711 358.407 103.948 357.675 103.948ZM359.198 101.114C359.599 101.114 359.977 101.031 360.331 100.866C360.709 100.7 361.052 100.441 361.359 100.086V96.5437L358.418 97.1814C357.852 97.2995 357.438 97.5002 357.179 97.7836C356.942 98.067 356.824 98.4449 356.824 98.9172C356.824 99.484 357.049 99.9918 357.497 100.441C357.97 100.889 358.537 101.114 359.198 101.114Z" fill="white"/>
<path d="M370.391 103.664L370.285 102.106L372.587 101.574C372.634 101.362 372.67 100.948 372.693 100.334C372.717 99.7202 372.741 98.9763 372.764 98.1024C372.788 97.205 372.8 96.2721 372.8 95.3038V90.8402C372.8 90.0137 372.788 89.1753 372.764 88.325C372.764 87.4512 372.752 86.6246 372.729 85.8453C372.729 85.0659 372.717 84.381 372.693 83.7906C372.67 83.1766 372.646 82.7042 372.623 82.3736L370.001 82.0193L369.93 80.6377L376.13 79.0082L377.015 79.575C376.992 80.5669 376.956 81.547 376.909 82.5153C376.885 83.46 376.862 84.5227 376.838 85.7036C376.838 86.8844 376.838 88.325 376.838 90.0255L376.803 95.4101C376.803 96.9688 376.815 98.3386 376.838 99.5195C376.885 100.677 376.933 101.362 376.98 101.574L379.283 102.106L379.212 103.664H370.391Z" fill="white"/>
<path d="M396.284 103.664L396.178 102.141L398.374 101.574C398.421 101.362 398.457 100.948 398.48 100.334C398.504 99.7202 398.528 98.9763 398.551 98.1024C398.575 97.205 398.587 96.2721 398.587 95.3038V90.8757C398.587 90.0727 398.575 89.2461 398.551 88.3959C398.551 87.5457 398.539 86.7309 398.516 85.9515C398.516 85.1486 398.504 84.4401 398.48 83.826C398.457 83.1884 398.433 82.7042 398.409 82.3736L395.788 82.0193L395.717 80.6377L401.846 79.0082L402.731 79.575C402.708 80.3071 402.672 81.0274 402.625 81.7359C402.601 82.4208 402.578 83.1766 402.554 84.0032C402.554 84.8297 402.542 85.7744 402.519 86.8372C402.495 87.8763 402.472 89.1162 402.448 90.5568L402.554 90.5923C403.31 89.6948 404.113 89.0336 404.963 88.6084C405.813 88.1597 406.723 87.9354 407.691 87.9354C408.659 87.9354 409.533 88.1833 410.312 88.6793C411.115 89.1516 411.753 89.8601 412.225 90.8048C412.698 91.7495 412.934 92.9067 412.934 94.2765V97.9607C412.934 98.7637 412.946 99.5195 412.969 100.228C413.016 100.913 413.064 101.362 413.111 101.574L415.307 102.141L415.201 103.664H406.912L406.805 102.141L408.824 101.574C408.872 101.385 408.907 101.114 408.931 100.759C408.954 100.405 408.966 99.9918 408.966 99.5195C408.99 99.0471 409.002 98.563 409.002 98.067V94.8079C409.002 93.8868 408.848 93.1429 408.541 92.5761C408.258 91.9857 407.88 91.5606 407.407 91.3008C406.935 91.0174 406.416 90.8757 405.849 90.8757C405.211 90.8757 404.597 91.0292 404.007 91.3362C403.44 91.6196 402.944 92.0447 402.519 92.6115V97.8545C402.519 98.7991 402.531 99.6139 402.554 100.299C402.601 100.96 402.66 101.385 402.731 101.574L404.892 102.141L404.786 103.664H396.284Z" fill="white"/>
<path d="M310.632 103.77H308.861L301.103 85.0305L299.296 84.4991L299.403 82.8695H307.657L307.763 84.4991L305.956 85.0305L310.909 97.5675L314.951 87.1424L314.069 85.0305L312.262 84.4991L312.368 82.8695H320.906L321.012 84.4991L318.816 85.0305L323.892 97.7223L328.593 85.0305L326.149 84.4991L326.255 82.8695H333.234L333.34 84.4991L331.533 85.0305L323.669 103.77H321.898L316.256 90.2668L310.632 103.77Z" fill="white"/>
<path fill-rule="evenodd" clip-rule="evenodd" d="M342.053 103.948C340.589 103.948 339.267 103.617 338.086 102.956C336.928 102.294 336.019 101.385 335.358 100.228C334.697 99.0471 334.366 97.701 334.366 96.1895C334.366 94.5363 334.732 93.0957 335.464 91.8676C336.196 90.6159 337.153 89.6476 338.334 88.9627C339.515 88.2542 340.778 87.9117 342.124 87.9354C344.179 87.959 345.738 88.6084 346.8 89.8838C347.887 91.1591 348.43 92.8241 348.43 94.8787V95.6581H338.453C338.531 97.1754 338.975 98.4034 339.786 99.3423C340.707 100.381 341.923 100.901 343.435 100.901C344.238 100.901 344.958 100.759 345.596 100.476C346.257 100.169 346.907 99.6493 347.544 98.9172L348.572 99.8383C347.91 101.208 347.001 102.235 345.844 102.92C344.71 103.605 343.447 103.948 342.053 103.948ZM344.037 90.7694C344.58 91.4543 344.852 92.3871 344.852 93.568V93.8868H338.46C338.51 93.1024 338.657 92.4293 338.901 91.8676C339.208 91.1591 339.621 90.6277 340.14 90.2734C340.66 89.9192 341.227 89.7421 341.841 89.7421C342.785 89.7421 343.518 90.0845 344.037 90.7694Z" fill="white"/>
<path d="M394.231 100.936C393.853 101.881 393.215 102.625 392.318 103.168C391.444 103.711 390.487 103.983 389.448 103.983C387.866 103.983 386.567 103.523 385.551 102.601C384.56 101.68 384.064 100.287 384.064 98.4213L384.17 90.3443H381.69V89.317L387.181 84.7825H388.208L388.156 88.2542H393.239V90.3443H388.13L388.067 97.9607C388.067 99.0235 388.315 99.8029 388.811 100.299C389.307 100.771 390.003 101.007 390.901 101.007C391.373 101.007 391.822 100.913 392.247 100.724C392.696 100.535 393.085 100.287 393.416 99.98L394.231 100.936Z" fill="white"/>
<path d="M308.59 60.2704C296.271 55.6664 290.631 53.2901 262.729 79.8748L294.689 43.3252L308.59 60.2704Z" fill="white" fill-opacity="0.6"/>
<path d="M294.689 26.2004L281.886 10.1604C291.374 14.3819 298.567 14.508 308.59 10.1604L294.689 26.2004Z" fill="white" fill-opacity="0.6"/>
</svg>
